<svg class="animated" id="freepik_stories-modern-desktop-computer" xmlns="http://www.w3.org/2000/svg" viewBox="0 0 750 500" version="1.1" xmlns:xlink="http://www.w3.org/1999/xlink" xmlns:svgjs="http://svgjs.com/svgjs"><style>svg#freepik_stories-modern-desktop-computer:not(.animated) .animable {opacity: 0;}svg#freepik_stories-modern-desktop-computer.animated #freepik--Mouse--inject-213 {animation: 1s 1 forwards cubic-bezier(.36,-0.01,.5,1.38) slideDown,1.5s Infinite  linear heartbeat;animation-delay: 0s,1s;}svg#freepik_stories-modern-desktop-computer.animated #freepik--Keyboard--inject-213 {animation: 1s 1 forwards cubic-bezier(.36,-0.01,.5,1.38) slideDown,1.5s Infinite  linear wind;animation-delay: 0s,1s;}svg#freepik_stories-modern-desktop-computer.animated #freepik--Plant--inject-213 {animation: 1s 1 forwards cubic-bezier(.36,-0.01,.5,1.38) slideDown;animation-delay: 0s;}svg#freepik_stories-modern-desktop-computer.animated #freepik--CPU--inject-213 {animation: 1s 1 forwards cubic-bezier(.36,-0.01,.5,1.38) slideDown;animation-delay: 0s;}svg#freepik_stories-modern-desktop-computer.animated #freepik--Monitor--inject-213 {animation: 1s 1 forwards cubic-bezier(.36,-0.01,.5,1.38) slideDown;animation-delay: 0s;}            @keyframes slideDown {                0% {                    opacity: 0;                    transform: translateY(-30px);                }                100% {                    opacity: 1;                    transform: translateY(0);                }            }                    @keyframes heartbeat {                0% {                    transform: scale(1);                }                10% {                    transform: scale(1.1);                }                30% {                    transform: scale(1);                }                40% {                    transform: scale(1);                }                50% {                    transform: scale(1.1);                }                60% {                    transform: scale(1);                }                100% {                    transform: scale(1);                }            }                    @keyframes wind {                0% {                    transform: rotate( 0deg );                }                25% {                    transform: rotate( 1deg );                }                75% {                    transform: rotate( -1deg );                }            }        </style><g id="freepik--background-complete--inject-213" class="animable" style="transform-origin: 375px 216.445px;"><g id="el1kkzykkwrl4" class="animable" style="transform-origin: 375px 216.445px;"><g id="elvbbes62joea" class="animable" style="transform-origin: 375px 199.323px;"><g id="el6cm6ywgdi9q" class="animable" style="transform-origin: 375px 168.729px;"><g id="elfwk2tqfkf4d" class="animable" style="transform-origin: 479.147px 168.729px;"><path d="M673.734,306.228h-180.746c-3.232,0-5.862-2.63-5.862-5.862V37.092c0-3.232,2.63-5.862,5.862-5.862h180.746c3.232,0,5.862,2.629,5.862,5.862V300.365c0,3.233-2.63,5.862-5.862,5.862ZM492.988,31.48c-3.095,0-5.612,2.518-5.612,5.612V300.365c0,3.095,2.518,5.612,5.612,5.612h180.746c3.095,0,5.612-2.518,5.612-5.612V37.092c0-3.094-2.518-5.612-5.612-5.612h-180.746Z" style="fill: rgb(224, 224, 224); transform-origin: 583.361px 168.729px;" id="elu06k1g6f8a8" class="animable"></path><path d="M465.306,306.228h-180.747c-3.232,0-5.862-2.63-5.862-5.862V37.092c0-3.232,2.629-5.862,5.862-5.862h180.747c3.232,0,5.862,2.629,5.862,5.862V300.365c0,3.233-2.63,5.862-5.862,5.862ZM284.559,31.48c-3.094,0-5.612,2.518-5.612,5.612V300.365c0,3.095,2.518,5.612,5.612,5.612h180.747c3.095,0,5.612-2.518,5.612-5.612V37.092c0-3.094-2.518-5.612-5.612-5.612h-180.747Z" style="fill: rgb(224, 224, 224); transform-origin: 374.933px 168.729px;" id="elkbkf6zabtqg" class="animable"></path></g><path d="M257.012,306.228H76.266c-3.232,0-5.862-2.63-5.862-5.862V37.092c0-3.232,2.629-5.862,5.862-5.862h180.746c3.232,0,5.862,2.629,5.862,5.862V300.365c0,3.233-2.63,5.862-5.862,5.862ZM76.266,31.48c-3.094,0-5.612,2.518-5.612,5.612V300.365c0,3.095,2.518,5.612,5.612,5.612h180.746c3.095,0,5.612-2.518,5.612-5.612V37.092c0-3.094-2.517-5.612-5.612-5.612H76.266Z" style="fill: rgb(224, 224, 224); transform-origin: 166.639px 168.729px;" id="elekqk91hh6yh" class="animable"></path></g><rect y="367.297" width="750" height=".12" style="fill: rgb(224, 224, 224); transform-origin: 375px 367.357px;" id="ela7ahmogcctk" class="animable"></rect></g><g id="el43c203m69px" class="animable" style="transform-origin: 375px 392.768px;"><rect x="653.626" y="396.673" width="55.729" height=".421" style="fill: rgb(235, 235, 235); transform-origin: 681.49px 396.884px;" id="elvjw0pc73haq" class="animable"></rect><rect x="495.044" y="401.239" width="14.627" height=".421" style="fill: rgb(235, 235, 235); transform-origin: 502.357px 401.45px;" id="el33ty1uvrrl" class="animable"></rect><rect x="40.645" y="383.876" width="72.675" height=".421" style="fill: rgb(235, 235, 235); transform-origin: 76.9825px 384.087px;" id="el9ajtrh5b6md" class="animable"></rect><rect x="128.299" y="383.876" width="10.655" height=".421" style="fill: rgb(235, 235, 235); transform-origin: 133.626px 384.087px;" id="elu66fllxg0u9" class="animable"></rect><rect x="173.586" y="390.98" width="157.613" height=".421" style="fill: rgb(235, 235, 235); transform-origin: 252.393px 391.191px;" id="elr96mhok39n" class="animable"></rect></g></g><g id="el1gky2zvlnkl" class="animable" style="transform-origin: 579.24px 123.075px;"><rect x="539.559" y="57.489" width="102.237" height="131.172" style="fill: rgb(230, 230, 230); transform-origin: 590.678px 123.075px;" id="el33yimk1eqfa" class="animable"></rect><rect x="516.685" y="57.489" width="120.094" height="131.172" style="fill: rgb(240, 240, 240); transform-origin: 576.732px 123.075px;" id="eliol4gi4si1d" class="animable"></rect><rect x="527.758" y="69.14" width="97.427" height="107.87" style="fill: rgb(255, 255, 255); transform-origin: 576.471px 123.075px;" id="elky3haf0nfeh" class="animable"></rect><rect x="559.761" y="103.606" width="35.169" height="38.938" style="fill: rgb(240, 240, 240); transform-origin: 577.346px 123.075px;" id="elprdgarekw3r" class="animable"></rect></g><g id="elil7diyxwf9s" class="animable" style="transform-origin: 160.25px 123.075px;"><rect x="120.568" y="57.489" width="102.237" height="131.172" style="fill: rgb(230, 230, 230); transform-origin: 171.686px 123.075px;" id="eld46coh7g1n6" class="animable"></rect><rect x="97.694" y="57.489" width="120.094" height="131.172" style="fill: rgb(240, 240, 240); transform-origin: 157.741px 123.075px;" id="elde9183a50j" class="animable"></rect><rect x="108.767" y="69.14" width="97.427" height="107.87" style="fill: rgb(255, 255, 255); transform-origin: 157.481px 123.075px;" id="elyxgl9fd0zj" class="animable"></rect><rect x="140.77" y="103.606" width="35.169" height="38.938" style="fill: rgb(240, 240, 240); transform-origin: 158.355px 123.075px;" id="el7bconxat4i2" class="animable"></rect></g></g><g id="freepik--Shadow--inject-213" class="animable" style="transform-origin: 380.041px 359.504px;"><ellipse cx="380.041" cy="359.504" rx="259.264" ry="36.279" style="fill: rgb(245, 245, 245); transform-origin: 380.041px 359.504px;" id="eldb5tpvxrsd8" class="animable"></ellipse></g><g id="freepik--Table--inject-213" class="animable" style="transform-origin: 375px 306.642px;"><path d="M734.455,307.142H15.545c-.276,0-.5-.224-.5-.5s.224-.5,.5-.5H734.455c.276,0,.5,.224,.5,.5s-.224,.5-.5,.5Z" style="fill: rgb(38, 50, 56); transform-origin: 375px 306.642px;" id="elyx9eothiota" class="animable"></path></g><g id="freepik--Mouse--inject-213" class="animable" style="transform-origin: 579.24px 409.43px;"><g id="elzfhnoyml0z" class="animable" style="transform-origin: 579.24px 409.43px;"><path d="M554.909,400.403s-2.1-6.467,.788-8.549c2.888-2.082,19.338-2.153,27.617-.765,8.279,1.388,15.703,6.316,18.783,12.7,3.08,6.384,5.755,24.463-12.515,25.258-21.274,.927-31.814-18.55-34.674-28.645Z" style="fill: rgb(38, 50, 56); transform-origin: 579.24px 409.615px;" id="eldwo4x4nalaw" class="animable"></path><path d="M604.154,411.424c-.529,3.258-2.79,11.061-12.358,12.014-12.131,1.209-21.645-9.438-25.269-15.436-3.491-5.778-8.982-11.668-11.962-14.617-.458,1.181-.453,2.661-.3,3.958,2.46,2.164,5.605,5.301,7.472,8.596,2.871,5.067,6.531,16.674,19.414,20.797,10.558,3.379,17.44-.978,20.781-3.618,2.246-3.414,2.655-7.782,2.222-11.694Z" style="fill: rgb(64, 123, 255); transform-origin: 579.24px 410.677px;" id="ell63le85m38" class="animable"></path><path d="M568.566,390.157s3.491,2.193,4.841,3.815c1.35,1.622,4.388,4.136,6.976,3.487,2.588-.649,.975-3.796-4.201-7.113,0,0-4.191-1.131-7.616-.19Z" style="fill: rgb(64, 123, 255); transform-origin: 575.082px 393.673px;" id="eltz17ha1xi1" class="animable"></path></g></g><g id="freepik--Keyboard--inject-213" class="animable animator-active" style="transform-origin: 386.481px 426.35px;"><g id="el095c82lgndo" class="animable" style="transform-origin: 386.481px 426.35px;"><path d="M232.963,461.351c-5.675-.013-9.909-5.222-8.762-10.78,3.394-16.454,9.936-46.268,12.103-56.113,.418-1.901,2.103-3.249,4.05-3.245l290.272,.564c2.516,.005,4.699,1.735,5.279,4.183l12.798,54.036c1.358,5.734-3.062,11.205-8.952,11.073-20.27-.452-61.063-1.398-73.276-1.941-16.47-.732-62.586,1.83-84.18,2.196-17.886,.303-116.121,.104-149.332,.027Z" style="fill: rgb(38, 50, 56); transform-origin: 386.481px 426.35px;" id="ely3untd5aan" class="animable"></path><path d="M508.565,421.843l-.666-3.522c-.152-.802-.853-1.383-1.669-1.383h-7.958c-1.043,0-1.84,.932-1.678,1.962l.552,3.522c.13,.827,.842,1.436,1.679,1.436h8.071c1.065,0,1.867-.968,1.669-2.015Z" style="fill: rgb(64, 123, 255); transform-origin: 502.584px 420.398px;" id="elh8rdho3c99s" class="animable"></path><path d="M495.452,421.896l-.552-3.522c-.13-.827-.842-1.436-1.679-1.436h-6.905c-1.016,0-1.804,.885-1.688,1.894l.408,3.522c.099,.857,.825,1.504,1.688,1.504h7.049c1.043,0,1.84-.931,1.679-1.962Z" style="fill: rgb(64, 123, 255); transform-origin: 490.045px 420.398px;" id="elwtq7fw5i41" class="animable"></path><path d="M495.358,426.758h-7.254c-1.016,0-1.805,.885-1.688,1.894l.408,3.522c.099,.857,.825,1.504,1.688,1.504h7.398c1.043,0,1.84-.931,1.679-1.962l-.552-3.522c-.13-.827-.842-1.436-1.679-1.436Z" style="fill: rgb(64, 123, 255); transform-origin: 492.007px 430.218px;" id="el5js5rnu01h5" class="animable"></path><path d="M525.251,438.22c-.189-.757-.869-1.288-1.649-1.288h-11.19l-.607,.115-.022-.115h-12.923l-.575,.09-.014-.09h-9.056c-1.016,0-1.805,.885-1.688,1.894l.441,3.813c.1,.865,.838,1.515,1.709,1.504l34.787-.442c1.096-.014,1.892-1.047,1.627-2.11l-.841-3.371Z" style="fill: rgb(64, 123, 255); transform-origin: 506.829px 440.538px;" id="el0t7muxsb7ana" class="animable"></path><path d="M508.835,405.776h6.36c1.105,0,1.916-1.038,1.649-2.11l-.404-1.62c-.189-.757-.869-1.288-1.648-1.288h-6.262c-1.065,0-1.867,.968-1.669,2.015l.306,1.619c.152,.802,.853,1.383,1.669,1.383Z" style="fill: rgb(64, 123, 255); transform-origin: 511.863px 403.267px;" id="el1iwkor2s7r5" class="animable"></path><path d="M496.207,405.776h7.551c1.065,0,1.867-.968,1.669-2.015l-.306-1.62c-.152-.802-.853-1.383-1.669-1.383h-7.499c-1.043,0-1.84,.931-1.679,1.962l.254,1.62c.129,.827,.842,1.436,1.678,1.436Z" style="fill: rgb(64, 123, 255); transform-origin: 499.855px 403.267px;" id="elwgsp8vt4fja" class="animable"></path><path d="M520.338,405.776h5.417c1.139,0,1.955-1.099,1.627-2.189l-.488-1.62c-.216-.718-.877-1.209-1.627-1.209h-5.334c-1.105,0-1.916,1.038-1.649,2.11l.404,1.62c.189,.757,.869,1.288,1.648,1.288Z" style="fill: rgb(64, 123, 255); transform-origin: 522.844px 403.267px;" id="elv9irn8yycn7" class="animable"></path><path d="M538.475,441.006l-7.449-23.105c-.216-.718-.877-1.209-1.627-1.209h-6.068c-1.105,0-1.916,1.038-1.649,2.11l6.292,22.82c.244,.886,1.046,1.503,1.965,1.511l6.93,.061c1.13-.014,1.931-1.107,1.605-2.189Z" style="fill: rgb(64, 123, 255); transform-origin: 530.089px 429.943px;" id="el537yfwlmx9o" class="animable"></path><path d="M492.835,403.814l-.254-1.62c-.13-.827-.842-1.436-1.678-1.436h-6.322c-1.016,0-1.805,.885-1.688,1.894l.187,1.62c.099,.857,.825,1.504,1.688,1.504h6.388c1.043,0,1.84-.932,1.679-1.962Z" style="fill: rgb(64, 123, 255); transform-origin: 487.869px 403.267px;" id="el2hhaunnf7f3" class="animable"></path><path d="M447.877,414.286h6.7c1.043,0,1.84-.931,1.678-1.962l-.409-2.608c-.129-.827-.842-1.436-1.679-1.436h-6.593c-1.016,0-1.805,.885-1.688,1.894l.302,2.608c.099,.857,.825,1.504,1.688,1.504Z" style="fill: rgb(64, 123, 255); transform-origin: 451.075px 411.283px;" id="elowvhl1s9meh" class="animable"></path><path d="M459.627,414.286h7.796c1.065,0,1.867-.968,1.669-2.015l-.493-2.608c-.152-.802-.853-1.383-1.67-1.383h-7.712c-1.043,0-1.84,.931-1.679,1.962l.409,2.608c.13,.827,.842,1.436,1.679,1.436Z" style="fill: rgb(64, 123, 255); transform-origin: 463.32px 411.283px;" id="elt5mmyjnrowh" class="animable"></path><path d="M471.158,405.776h6.36c1.105,0,1.916-1.038,1.649-2.11l-.404-1.62c-.189-.757-.869-1.288-1.649-1.288h-6.262c-1.065,0-1.867,.968-1.669,2.015l.306,1.619c.152,.802,.853,1.383,1.669,1.383Z" style="fill: rgb(64, 123, 255); transform-origin: 474.186px 403.267px;" id="elgfo3v9rejr8" class="animable"></path><path d="M480.968,412.175l-.651-2.608c-.189-.757-.869-1.288-1.648-1.288h-6.661c-1.065,0-1.867,.968-1.669,2.015l.493,2.608c.152,.802,.853,1.383,1.669,1.383h6.819c1.105,0,1.916-1.038,1.648-2.11Z" style="fill: rgb(64, 123, 255); transform-origin: 475.664px 411.282px;" id="elhrpq8rtycxn" class="animable"></path><path d="M458.53,405.776h7.551c1.065,0,1.867-.968,1.669-2.015l-.306-1.62c-.152-.802-.853-1.383-1.669-1.383h-7.499c-1.043,0-1.84,.931-1.679,1.962l.254,1.62c.13,.827,.842,1.436,1.679,1.436Z" style="fill: rgb(64, 123, 255); transform-origin: 462.178px 403.267px;" id="eladoe9n5hkau" class="animable"></path><path d="M455.158,403.814l-.254-1.62c-.13-.827-.842-1.436-1.679-1.436h-6.322c-1.016,0-1.805,.885-1.688,1.894l.187,1.62c.099,.857,.825,1.504,1.688,1.504h6.388c1.043,0,1.84-.932,1.678-1.962Z" style="fill: rgb(64, 123, 255); transform-origin: 450.19px 403.267px;" id="eligh6fcmnadb" class="animable"></path><path d="M523.881,431.568l-.879-3.522c-.189-.757-.869-1.288-1.648-1.288h-7.635c-1.065,0-1.867,.968-1.669,2.015l.666,3.522c.152,.802,.853,1.383,1.669,1.383h7.848c1.105,0,1.916-1.038,1.648-2.11Z" style="fill: rgb(64, 123, 255); transform-origin: 517.976px 430.218px;" id="elxg39vuhpdld" class="animable"></path><path d="M520.955,421.748l-.878-3.522c-.189-.757-.869-1.288-1.649-1.288h-7.121c-1.065,0-1.867,.968-1.669,2.015l.666,3.522c.152,.802,.853,1.383,1.669,1.383h7.333c1.105,0,1.916-1.038,1.648-2.11Z" style="fill: rgb(64, 123, 255); transform-origin: 515.307px 420.398px;" id="el9ousyr6inx" class="animable"></path><g id="elip0dsloqdc" class="animable" style="transform-origin: 506.83px 411.283px;"><path d="M485.782,414.286h6.7c1.043,0,1.84-.931,1.679-1.962l-.409-2.608c-.13-.827-.842-1.436-1.679-1.436h-6.593c-1.016,0-1.805,.885-1.688,1.894l.302,2.608c.099,.857,.825,1.504,1.688,1.504Z" style="fill: rgb(64, 123, 255); transform-origin: 488.981px 411.283px;" id="el88ocnm9v7xi" class="animable"></path><path d="M497.532,414.286h7.796c1.065,0,1.867-.968,1.669-2.015l-.493-2.608c-.152-.802-.853-1.383-1.669-1.383h-7.712c-1.043,0-1.84,.932-1.679,1.962l.409,2.608c.13,.827,.842,1.436,1.678,1.436Z" style="fill: rgb(64, 123, 255); transform-origin: 501.225px 411.283px;" id="el1ipyj0xjf52" class="animable"></path><path d="M518.874,412.175l-.651-2.608c-.189-.757-.869-1.288-1.649-1.288h-6.661c-1.065,0-1.867,.968-1.669,2.015l.493,2.608c.152,.802,.853,1.383,1.67,1.383h6.819c1.105,0,1.916-1.038,1.648-2.11Z" style="fill: rgb(64, 123, 255); transform-origin: 513.57px 411.282px;" id="elvpyqlu1rys9" class="animable"></path><path d="M529.805,412.097l-.859-2.791c-.188-.61-.751-1.026-1.389-1.026h-5.84c-1.105,0-1.916,1.038-1.648,2.11l.651,2.608c.189,.757,.869,1.288,1.649,1.288h5.81c1.139,0,1.955-1.099,1.627-2.189Z" style="fill: rgb(64, 123, 255); transform-origin: 524.948px 411.283px;" id="elwkqju0ppckb" class="animable"></path></g><path d="M510.977,431.664l-.666-3.522c-.152-.802-.853-1.383-1.669-1.383h-8.233c-1.043,0-1.84,.932-1.679,1.962l.552,3.522c.13,.827,.842,1.436,1.679,1.436h8.346c1.065,0,1.867-.968,1.669-2.015Z" style="fill: rgb(64, 123, 255); transform-origin: 504.858px 430.219px;" id="elbk2e8pme5k" class="animable"></path><path d="M470.61,433.432l-.666-3.521c-.152-.802-.853-1.383-1.669-1.383h-7.958c-1.043,0-1.84,.932-1.679,1.962l.552,3.522c.13,.827,.842,1.436,1.679,1.436h8.071c1.065,0,1.867-.968,1.669-2.015Z" style="fill: rgb(64, 123, 255); transform-origin: 464.628px 431.988px;" id="elt37s8pp9vjb" class="animable"></path><path d="M456.6,437.038h-7.254c-1.016,0-1.805,.885-1.688,1.894l.408,3.522c.099,.857,.825,1.504,1.688,1.504h7.398c1.043,0,1.84-.932,1.679-1.962l-.552-3.522c-.13-.827-.842-1.436-1.679-1.436Z" style="fill: rgb(64, 123, 255); transform-origin: 453.249px 440.498px;" id="elahx76qfwp4s" class="animable"></path><path d="M485.123,441.847l-.879-3.522c-.189-.757-.869-1.288-1.648-1.288h-7.635c-1.065,0-1.867,.968-1.669,2.015l.666,3.522c.152,.802,.853,1.383,1.669,1.383h7.848c1.105,0,1.916-1.038,1.649-2.11Z" style="fill: rgb(64, 123, 255); transform-origin: 479.218px 440.497px;" id="elte71gludbfh" class="animable"></path><path d="M472.219,441.943l-.666-3.522c-.152-.802-.853-1.383-1.669-1.383h-8.233c-1.043,0-1.84,.931-1.679,1.962l.552,3.522c.13,.827,.842,1.436,1.679,1.436h8.346c1.065,0,1.867-.968,1.67-2.015Z" style="fill: rgb(64, 123, 255); transform-origin: 466.1px 440.498px;" id="el7gccdpkuad7" class="animable"></path><path d="M379.142,435.745h-91.56c-.42,0-.768,.327-.794,.746l-.56,9.029c-.029,.46,.339,.849,.8,.845l92.259-.755c.442-.004,.796-.367,.789-.809l-.139-8.274c-.007-.434-.361-.782-.795-.782Z" style="fill: rgb(64, 123, 255); transform-origin: 333.151px 441.055px;" id="ell417ngzdtff" class="animable"></path><path d="M392.751,435.984h-9.959c-.701,0-1.266,.575-1.255,1.276l.123,7.325c.012,.689,.576,1.239,1.265,1.234l10.096-.083c.707-.006,1.269-.594,1.244-1.3l-.26-7.242c-.024-.675-.579-1.21-1.254-1.21Z" style="fill: rgb(64, 123, 255); transform-origin: 387.901px 440.902px;" id="eliim8n0vmtkg" class="animable"></path><path d="M283.665,435.745h-9.065c-.76,0-1.397,.576-1.473,1.332l-.781,7.768c-.088,.876,.604,1.635,1.485,1.628l9.37-.077c.777-.006,1.417-.613,1.465-1.389l.477-7.691c.053-.852-.624-1.572-1.477-1.572Z" style="fill: rgb(64, 123, 255); transform-origin: 278.742px 441.109px;" id="eljruourkqzcm" class="animable"></path><path d="M408.484,435.984h-11.63c-.711,0-1.279,.59-1.254,1.3l.258,7.209c.024,.679,.585,1.215,1.264,1.21l11.916-.098c.727-.006,1.296-.626,1.241-1.351l-.545-7.111c-.05-.654-.595-1.159-1.251-1.159Z" style="fill: rgb(64, 123, 255); transform-origin: 402.941px 440.844px;" id="elv20msxhbswc" class="animable"></path><path d="M270.713,445.178l.785-7.805c.088-.872-.597-1.628-1.473-1.628h-8.476c-.738,0-1.364,.544-1.466,1.275l-1.1,7.877c-.125,.895,.574,1.692,1.478,1.685l8.792-.072c.755-.006,1.385-.58,1.461-1.332Z" style="fill: rgb(64, 123, 255); transform-origin: 265.237px 441.164px;" id="el6f0g6bxp3vh" class="animable"></path><path d="M256.953,435.745h-14.905c-.707,0-1.315,.5-1.452,1.194l-1.586,8.041c-.181,.92,.527,1.774,1.464,1.766l15.386-.126c.734-.006,1.352-.549,1.454-1.275l1.106-7.915c.124-.89-.567-1.685-1.466-1.685Z" style="fill: rgb(64, 123, 255); transform-origin: 248.708px 441.245px;" id="el1b7tm239lsg" class="animable"></path><path d="M423.058,435.745h-10.462c-.731,0-1.307,.622-1.251,1.351l.542,7.078c.05,.658,.602,1.164,1.261,1.159l10.826-.089c.753-.006,1.331-.669,1.234-1.416l-.907-6.989c-.081-.625-.614-1.094-1.244-1.094Z" style="fill: rgb(64, 123, 255); transform-origin: 418.28px 440.539px;" id="elf8s1f7e245" class="animable"></path><path d="M445.347,443.683l-.885-6.702c-.093-.707-.696-1.236-1.409-1.236h-15.86c-.757,0-1.342,.665-1.244,1.416l.902,6.955c.082,.629,.62,1.099,1.255,1.093l16.005-.131c.745-.006,1.32-.656,1.237-1.396Z" style="fill: rgb(64, 123, 255); transform-origin: 435.647px 440.477px;" id="elzob4twc1p5k" class="animable"></path><path d="M285.424,431.799l.245-3.96c.053-.852-.624-1.572-1.477-1.572h-8.737c-.76,0-1.397,.576-1.473,1.332l-.398,3.96c-.088,.872,.597,1.628,1.473,1.628h8.89c.782,0,1.429-.608,1.477-1.389Z" style="fill: rgb(64, 123, 255); transform-origin: 279.624px 429.727px;" id="el19sq2aapnx8" class="animable"></path><path d="M392.446,426.507h-9.797c-.701,0-1.266,.575-1.255,1.276l.074,4.41c.011,.685,.57,1.234,1.255,1.234h9.881c.711,0,1.28-.59,1.254-1.3l-.158-4.41c-.024-.675-.578-1.21-1.254-1.21Z" style="fill: rgb(64, 123, 255); transform-origin: 387.626px 429.967px;" id="el18a1bjbi7zy" class="animable"></path><path d="M407.831,426.507h-11.283c-.711,0-1.279,.59-1.254,1.3l.158,4.41c.024,.675,.578,1.21,1.254,1.21h11.463c.731,0,1.307-.622,1.251-1.351l-.338-4.41c-.05-.654-.595-1.159-1.251-1.159Z" style="fill: rgb(64, 123, 255); transform-origin: 402.358px 429.967px;" id="ellteodg19wn" class="animable"></path><path d="M296.295,426.267h-7.542c-.782,0-1.429,.608-1.477,1.389l-.245,3.96c-.053,.852,.624,1.572,1.477,1.572h7.721c.808,0,1.466-.648,1.48-1.455l.067-3.96c.014-.827-.653-1.505-1.48-1.505Z" style="fill: rgb(64, 123, 255); transform-origin: 292.402px 429.727px;" id="el8mla4wtu1u7" class="animable"></path><path d="M366.741,427.076c.007-.444-.351-.809-.795-.809h-10.834c-.439,0-.795,.356-.795,.796v5.329c0,.439,.356,.796,.795,.796h11.754c-.134-.293-.215-.63-.211-.843l.087-5.268Z" style="fill: rgb(64, 123, 255); transform-origin: 360.591px 429.727px;" id="elklmjwamyi7q" class="animable"></path><path d="M379.794,427.05c-.007-.434-.361-.782-.795-.782h-9.87c-.434,0-.788,.348-.796,.782l-.088,5.321c-.004,.208-.087,.532-.219,.817h11.062c.445,0,.803-.364,.795-.809l-.089-5.329Z" style="fill: rgb(64, 123, 255); transform-origin: 373.955px 429.728px;" id="ely90r0i3qrg" class="animable"></path><path d="M337.911,426.267h-9.84c-.439,0-.795,.356-.795,.796v5.294c0,.439-.356,.796-.796,.796h0c-.439,0-.795-.356-.795-.796v-5.294c0-.439-.356-.796-.795-.796h-10.946c-.439,0-.796,.356-.796,.796v5.294c0,.439-.356,.796-.795,.796h0c-.439,0-.796-.356-.796-.796v-5.294c0-.439-.356-.796-.795-.796h-10.587c-.434,0-.788,.348-.795,.782l-.09,5.329c-.007,.445,.351,.809,.795,.809h37.827c.439,0,.795-.356,.795-.795v-5.329c0-.439-.356-.796-.795-.796Z" style="fill: rgb(64, 123, 255); transform-origin: 318.998px 429.727px;" id="el5051d8bxtgo" class="animable"></path><rect x="340.297" y="426.267" width="12.428" height="6.92" rx=".795" ry=".795" style="fill: rgb(64, 123, 255); transform-origin: 346.511px 429.727px;" id="elci083dpvmka" class="animable"></rect><path d="M426.661,433.188h16.204c.749,0,1.331-.652,1.247-1.396l-.499-4.41c-.072-.635-.608-1.114-1.247-1.114h-16.277c-.757,0-1.342,.665-1.244,1.416l.572,4.41c.081,.625,.614,1.093,1.244,1.093Z" style="fill: rgb(64, 123, 255); transform-origin: 434.477px 429.728px;" id="el94hvmaq5sss" class="animable"></path><path d="M270.881,426.267h-8.143c-.738,0-1.364,.544-1.466,1.275l-.553,3.96c-.124,.89,.567,1.685,1.466,1.685h8.298c.76,0,1.397-.576,1.473-1.332l.398-3.96c.088-.872-.597-1.628-1.473-1.628Z" style="fill: rgb(64, 123, 255); transform-origin: 266.533px 429.727px;" id="elvjvlc6r3nhg" class="animable"></path><path d="M259.055,431.912l.553-3.96c.124-.89-.567-1.685-1.466-1.685h-14.416c-.707,0-1.315,.5-1.452,1.194l-.781,3.96c-.18,.915,.52,1.767,1.452,1.767h14.643c.738,0,1.364-.544,1.466-1.275Z" style="fill: rgb(64, 123, 255); transform-origin: 250.544px 429.727px;" id="el12bmjqnze0p" class="animable"></path><path d="M410.693,427.618l.338,4.41c.05,.654,.595,1.159,1.251,1.159h10.244c.757,0,1.342-.665,1.244-1.416l-.572-4.41c-.081-.625-.614-1.093-1.244-1.093h-10.01c-.731,0-1.307,.622-1.251,1.351Z" style="fill: rgb(64, 123, 255); transform-origin: 417.235px 429.728px;" id="elv4d94b22jmk" class="animable"></path><path d="M394.989,417.999l.158,4.41c.024,.675,.579,1.21,1.254,1.21h11.116c.731,0,1.307-.622,1.251-1.351l-.338-4.41c-.05-.654-.595-1.159-1.251-1.159h-10.936c-.711,0-1.279,.59-1.254,1.3Z" style="fill: rgb(64, 123, 255); transform-origin: 401.88px 420.159px;" id="elzulhqatxdr" class="animable"></path><path d="M284.72,416.699h-8.408c-.76,0-1.397,.576-1.473,1.332l-.398,3.96c-.088,.872,.597,1.628,1.473,1.628h8.561c.782,0,1.429-.608,1.477-1.389l.245-3.96c.053-.852-.624-1.572-1.477-1.572Z" style="fill: rgb(64, 123, 255); transform-origin: 280.317px 420.158px;" id="elkf145l3c16" class="animable"></path><path d="M310.761,416.699h-10.443c-.434,0-.788,.348-.795,.782l-.09,5.329c-.008,.444,.351,.809,.795,.809h10.533c.439,0,.795-.356,.795-.796v-5.329c0-.439-.356-.796-.795-.796Z" style="fill: rgb(64, 123, 255); transform-origin: 305.494px 420.159px;" id="el0q3emkcxc1rq" class="animable"></path><path d="M289.034,423.619h7.337c.808,0,1.466-.647,1.48-1.455l.067-3.96c.014-.827-.653-1.505-1.48-1.505h-7.158c-.782,0-1.429,.608-1.477,1.389l-.245,3.96c-.053,.852,.624,1.572,1.477,1.572Z" style="fill: rgb(64, 123, 255); transform-origin: 292.737px 420.16px;" id="eliyjsx13btdi" class="animable"></path><path d="M420.85,416.699h-9.558c-.731,0-1.307,.622-1.251,1.351l.338,4.41c.05,.654,.595,1.159,1.251,1.159h9.793c.757,0,1.342-.665,1.245-1.416l-.572-4.41c-.081-.625-.614-1.093-1.244-1.093Z" style="fill: rgb(64, 123, 255); transform-origin: 416.358px 420.159px;" id="elpictfgxzqnf" class="animable"></path><path d="M263.373,423.619h7.965c.76,0,1.397-.576,1.473-1.332l.398-3.96c.088-.872-.597-1.628-1.473-1.628h-7.81c-.738,0-1.364,.544-1.466,1.275l-.553,3.96c-.124,.89,.567,1.685,1.466,1.685Z" style="fill: rgb(64, 123, 255); transform-origin: 267.555px 420.159px;" id="el48nu6pdqkcp" class="animable"></path><path d="M366.086,416.699h-10.975c-.439,0-.795,.356-.795,.796v5.329c0,.439,.356,.796,.795,.796h10.887c.434,0,.788-.348,.795-.782l.088-5.329c.007-.444-.351-.809-.795-.809Z" style="fill: rgb(64, 123, 255); transform-origin: 360.599px 420.16px;" id="elx0wu48qyqk" class="animable"></path><polygon points="379.638 416.699 368.487 416.699 368.372 423.619 379.754 423.619 379.638 416.699" style="fill: rgb(64, 123, 255); transform-origin: 374.063px 420.159px;" id="elsho2aph05a" class="animable"></polygon><path d="M313.943,416.699h10.945c.439,0,.796,.356,.796,.796v5.329c0,.439-.356,.796-.796,.796h-10.946c-.439,0-.795-.356-.795-.795v-5.329c0-.439,.356-.796,.796-.796Z" style="fill: rgb(64, 123, 255); transform-origin: 319.415px 420.16px;" id="elfskir9pwjag" class="animable"></path><path d="M392.14,416.938h-9.635c-.701,0-1.266,.575-1.255,1.276l.074,4.41c.011,.685,.57,1.234,1.255,1.234h9.719c.711,0,1.28-.59,1.254-1.3l-.158-4.41c-.024-.675-.578-1.21-1.254-1.21Z" style="fill: rgb(64, 123, 255); transform-origin: 387.401px 420.398px;" id="el0xyfdr6n9b09" class="animable"></path><path d="M328.071,416.699h9.84c.439,0,.795,.356,.795,.795v5.329c0,.439-.356,.795-.795,.795h-9.84c-.439,0-.795-.356-.795-.795v-5.329c0-.439,.356-.796,.796-.796Z" style="fill: rgb(64, 123, 255); transform-origin: 332.991px 420.158px;" id="elgojmu1k12p5" class="animable"></path><path d="M341.093,416.699h10.837c.439,0,.795,.356,.795,.795v5.329c0,.439-.356,.795-.795,.795h-10.837c-.439,0-.795-.356-.795-.795v-5.329c0-.439,.356-.796,.796-.796Z" style="fill: rgb(64, 123, 255); transform-origin: 346.511px 420.158px;" id="el6ru7odc5fjd" class="animable"></path><path d="M260.244,422.344l.553-3.96c.124-.89-.567-1.685-1.466-1.685h-13.926c-.707,0-1.315,.5-1.452,1.194l-.781,3.96c-.18,.915,.52,1.766,1.452,1.766h14.154c.738,0,1.364-.544,1.466-1.275Z" style="fill: rgb(64, 123, 255); transform-origin: 251.978px 420.159px;" id="el7th5bw254g5" class="animable"></path><path d="M425.557,423.619h16.346c.749,0,1.331-.652,1.247-1.396l-.499-4.41c-.072-.634-.608-1.114-1.247-1.114h-16.419c-.757,0-1.342,.665-1.244,1.416l.572,4.41c.081,.625,.614,1.093,1.244,1.093Z" style="fill: rgb(64, 123, 255); transform-origin: 433.444px 420.159px;" id="elurauqvrnu1" class="animable"></path><path d="M423.855,405.666h16.079c.909,0,1.615-.791,1.513-1.694l-.222-1.963c-.087-.774-.744-1.357-1.523-1.352l-16.098,.102c-.915,.006-1.618,.811-1.501,1.719l.241,1.862c.098,.759,.745,1.327,1.51,1.327Z" style="fill: rgb(64, 123, 255); transform-origin: 431.774px 403.162px;" id="elsj5an2xi4ij" class="animable"></path><path d="M262.647,404.39l.129-.921c.125-.894-.573-1.691-1.475-1.685l-13.19,.083c-.703,.004-1.307,.504-1.443,1.194l-.165,.837c-.18,.915,.52,1.767,1.452,1.767h13.227c.738,0,1.364-.544,1.466-1.275Z" style="fill: rgb(64, 123, 255); transform-origin: 254.633px 403.725px;" id="elt1r46iwa6o" class="animable"></path><path d="M314.095,405.666h10.946c.439,0,.795-.356,.795-.796v-2.693c0-.441-.359-.798-.8-.796l-10.946,.069c-.437,.003-.79,.358-.79,.796v2.624c0,.439,.356,.796,.796,.796Z" style="fill: rgb(64, 123, 255); transform-origin: 319.568px 403.523px;" id="eltvhrubhqdlc" class="animable"></path><path d="M355.264,405.666h11.153c.434,0,.788-.348,.795-.782l.049-2.955c.007-.446-.354-.811-.8-.809l-11.202,.071c-.437,.003-.79,.358-.79,.796v2.884c0,.439,.356,.796,.796,.796Z" style="fill: rgb(64, 123, 255); transform-origin: 360.865px 403.393px;" id="elyjduvm3myjq" class="animable"></path><path d="M369.6,405.666h9.227c.445,0,.803-.364,.795-.809l-.051-3.033c-.007-.436-.364-.785-.8-.782l-9.127,.058c-.432,.003-.783,.35-.79,.782l-.049,2.975c-.007,.444,.351,.809,.795,.809Z" style="fill: rgb(64, 123, 255); transform-origin: 374.214px 403.354px;" id="el3l2ubm24g4e" class="animable"></path><path d="M328.223,405.666h9.84c.439,0,.796-.356,.796-.796v-2.775c0-.441-.359-.798-.801-.796l-9.84,.062c-.437,.003-.79,.358-.79,.796v2.713c0,.439,.356,.796,.795,.796Z" style="fill: rgb(64, 123, 255); transform-origin: 333.143px 403.483px;" id="elb96i7mfxfab" class="animable"></path><path d="M341.245,405.666h10.837c.439,0,.796-.356,.796-.796v-2.864c0-.441-.359-.798-.801-.796l-10.837,.068c-.437,.003-.79,.358-.79,.796v2.796c0,.439,.356,.796,.796,.796Z" style="fill: rgb(64, 123, 255); transform-origin: 346.664px 403.438px;" id="eleboqtvdnqrm" class="animable"></path><path d="M409.119,402.193l.177,2.314c.05,.654,.595,1.159,1.251,1.159h8.937c.757,0,1.342-.665,1.244-1.416l-.307-2.369c-.081-.628-.619-1.097-1.252-1.093l-8.807,.056c-.728,.005-1.299,.625-1.243,1.351Z" style="fill: rgb(64, 123, 255); transform-origin: 414.927px 403.227px;" id="elnpcz3qt9ye" class="animable"></path><path d="M382.462,405.905h9.411c.711,0,1.28-.59,1.254-1.3l-.079-2.196c-.024-.678-.583-1.214-1.262-1.21l-9.369,.059c-.698,.004-1.259,.578-1.247,1.276l.036,2.137c.011,.685,.57,1.234,1.255,1.234Z" style="fill: rgb(64, 123, 255); transform-origin: 387.149px 403.552px;" id="el0cdc8sm2vppu" class="animable"></path><path d="M395.976,405.666h10.459c.731,0,1.307-.622,1.251-1.351l-.175-2.288c-.05-.657-.6-1.163-1.259-1.159l-10.364,.066c-.707,.004-1.271,.593-1.246,1.3l.08,2.222c.024,.675,.578,1.21,1.254,1.21Z" style="fill: rgb(64, 123, 255); transform-origin: 401.165px 403.267px;" id="elb46y5ighpgq" class="animable"></path><path d="M290.185,405.666h6.611c.808,0,1.466-.648,1.48-1.455l.019-1.145c.014-.831-.658-1.51-1.489-1.505l-6.562,.042c-.778,.005-1.42,.612-1.468,1.389l-.068,1.104c-.053,.852,.624,1.572,1.477,1.572Z" style="fill: rgb(64, 123, 255); transform-origin: 293.5px 403.614px;" id="elmuvglsx8l9q" class="animable"></path><path d="M277.685,405.666h7.94c.782,0,1.429-.608,1.477-1.389l.067-1.075c.053-.855-.629-1.577-1.487-1.572l-7.903,.05c-.756,.005-1.388,.579-1.463,1.332l-.103,1.025c-.088,.872,.597,1.628,1.473,1.628Z" style="fill: rgb(64, 123, 255); transform-origin: 281.689px 403.648px;" id="elwfsisqh24gn" class="animable"></path><path d="M265.776,405.666h7.335c.76,0,1.397-.576,1.473-1.332l.1-.996c.088-.875-.602-1.634-1.482-1.628l-7.302,.046c-.735,.005-1.355,.548-1.456,1.275l-.133,.95c-.124,.89,.567,1.685,1.466,1.685Z" style="fill: rgb(64, 123, 255); transform-origin: 269.494px 403.688px;" id="el0xso5oua48l" class="animable"></path><path d="M300.652,405.666h10.261c.439,0,.796-.356,.796-.796v-2.604c0-.441-.359-.798-.801-.796l-10.219,.065c-.432,.003-.783,.35-.79,.782l-.043,2.539c-.007,.444,.351,.809,.795,.809Z" style="fill: rgb(64, 123, 255); transform-origin: 305.782px 403.568px;" id="elzsss3jujyjr" class="animable"></path><path d="M289.562,414.286h6.953c.808,0,1.466-.648,1.48-1.455l.051-3.046c.014-.827-.653-1.505-1.48-1.505h-6.816c-.782,0-1.429,.608-1.477,1.388l-.189,3.046c-.053,.852,.624,1.572,1.477,1.572Z" style="fill: rgb(64, 123, 255); transform-origin: 293.064px 411.283px;" id="elod9kla8h569" class="animable"></path><path d="M276.769,414.286h8.233c.782,0,1.429-.608,1.477-1.389l.189-3.046c.053-.852-.624-1.572-1.477-1.572h-8.115c-.76,0-1.397,.576-1.473,1.332l-.306,3.046c-.088,.872,.597,1.628,1.473,1.628Z" style="fill: rgb(64, 123, 255); transform-origin: 280.98px 411.283px;" id="elfpfpymuppur" class="animable"></path><path d="M300.371,414.286h10.39c.439,0,.795-.356,.795-.796v-4.415c0-.439-.356-.796-.795-.796h-10.315c-.434,0-.788,.348-.795,.782l-.074,4.415c-.007,.444,.351,.809,.795,.809Z" style="fill: rgb(64, 123, 255); transform-origin: 305.566px 411.283px;" id="ellxs1x0drpkd" class="animable"></path><path d="M341.093,408.28h10.837c.439,0,.795,.356,.795,.795v4.415c0,.439-.356,.795-.795,.795h-10.837c-.439,0-.795-.356-.795-.795v-4.415c0-.439,.356-.796,.796-.796Z" style="fill: rgb(64, 123, 255); transform-origin: 346.511px 411.282px;" id="elk0ga04y2dhl" class="animable"></path><path d="M328.071,408.28h9.84c.439,0,.795,.356,.795,.795v4.415c0,.439-.356,.795-.795,.795h-9.84c-.439,0-.795-.356-.795-.795v-4.415c0-.439,.356-.796,.796-.796Z" style="fill: rgb(64, 123, 255); transform-origin: 332.991px 411.282px;" id="eli2q23gnjq8g" class="animable"></path><path d="M355.112,414.286h11.027c.434,0,.788-.348,.795-.782l.073-4.415c.007-.444-.351-.809-.795-.809h-11.1c-.439,0-.795,.356-.795,.796v4.415c0,.439,.356,.796,.795,.796Z" style="fill: rgb(64, 123, 255); transform-origin: 360.662px 411.283px;" id="elxadvho709n" class="animable"></path><path d="M313.943,408.28h10.945c.439,0,.795,.356,.795,.795v4.415c0,.439-.356,.795-.795,.795h-10.946c-.439,0-.796-.356-.796-.796v-4.415c0-.439,.356-.796,.796-.796Z" style="fill: rgb(64, 123, 255); transform-origin: 319.415px 411.282px;" id="eldjvf5arh7yw" class="animable"></path><path d="M382.437,414.525h9.556c.711,0,1.279-.59,1.254-1.3l-.125-3.496c-.024-.675-.578-1.21-1.254-1.21h-9.49c-.701,0-1.266,.575-1.255,1.276l.059,3.496c.011,.685,.57,1.234,1.255,1.234Z" style="fill: rgb(64, 123, 255); transform-origin: 387.185px 411.522px;" id="elrk4fvk5eds" class="animable"></path><path d="M369.789,414.286h8.546c.701,0,1.266-.575,1.255-1.276l-.059-3.496c-.011-.685-.57-1.234-1.255-1.234h-8.43c-.685,0-1.243,.549-1.255,1.234l-.058,3.496c-.012,.701,.553,1.276,1.255,1.276Z" style="fill: rgb(64, 123, 255); transform-origin: 374.061px 411.283px;" id="eltylei6evpc" class="animable"></path><path d="M406.597,408.28h-10.626c-.711,0-1.279,.59-1.254,1.3l.125,3.496c.024,.675,.579,1.21,1.254,1.21h10.769c.731,0,1.307-.622,1.251-1.351l-.268-3.496c-.05-.654-.595-1.159-1.251-1.159Z" style="fill: rgb(64, 123, 255); transform-origin: 401.418px 411.283px;" id="elb3qikp8jqj7" class="animable"></path><path d="M424.453,414.286h16.488c.749,0,1.331-.652,1.247-1.396l-.395-3.496c-.072-.634-.608-1.114-1.247-1.114h-16.546c-.757,0-1.342,.665-1.244,1.416l.454,3.496c.081,.625,.614,1.093,1.244,1.093Z" style="fill: rgb(64, 123, 255); transform-origin: 432.471px 411.283px;" id="elak3odamtm7g" class="animable"></path><path d="M273.667,412.953l.306-3.046c.088-.872-.597-1.628-1.473-1.628h-7.513c-.738,0-1.364,.544-1.466,1.275l-.425,3.046c-.124,.89,.567,1.685,1.466,1.685h7.632c.76,0,1.397-.576,1.473-1.332Z" style="fill: rgb(64, 123, 255); transform-origin: 268.531px 411.282px;" id="el7xmn5rgb6wd" class="animable"></path><path d="M246.303,414.286h13.664c.738,0,1.364-.544,1.466-1.275l.425-3.046c.124-.89-.567-1.685-1.466-1.685h-13.488c-.707,0-1.315,.5-1.452,1.194l-.601,3.046c-.18,.915,.52,1.767,1.452,1.767Z" style="fill: rgb(64, 123, 255); transform-origin: 253.348px 411.284px;" id="eldi976slorxj" class="animable"></path><path d="M409.458,409.63l.268,3.496c.05,.654,.595,1.159,1.251,1.159h9.341c.757,0,1.342-.665,1.244-1.416l-.454-3.496c-.081-.625-.614-1.093-1.244-1.093h-9.155c-.731,0-1.307,.622-1.251,1.351Z" style="fill: rgb(64, 123, 255); transform-origin: 415.514px 411.283px;" id="eljjs8wno8d6k" class="animable"></path><g id="elgtuoppe6kid"><path d="M548.745,450.233c-4.708,1.852-13.957,2.805-24.898,2.502-13.384-.371-53.991-2.854-97.046-1.568-47.505,1.419-186.582,.775-193.174,0-3.582-.422-6.698-1.873-8.867-3.294-.193,.928-.381,1.833-.559,2.692-1.147,5.561,3.088,10.772,8.766,10.785,33.216,.077,131.442,.276,149.326-.027,21.594-.366,67.71-2.928,84.18-2.196,12.213,.543,53.007,1.488,73.276,1.941,5.809,.13,10.176-5.19,8.994-10.836Z" style="opacity: 0.3; transform-origin: 386.475px 454.679px;" class="animable"></path></g></g></g><g id="freepik--Plant--inject-213" class="animable" style="transform-origin: 636.065px 271.196px;"><g id="elsscxww5sih" class="animable" style="transform-origin: 636.065px 271.196px;"><polygon points="602.253 309.89 616.547 367.476 669.184 367.476 681.929 309.89 602.253 309.89" style="fill: rgb(38, 50, 56); transform-origin: 642.091px 338.683px;" id="ell40g60mhzy" class="animable"></polygon><g id="elmpzxoqrnw2e" class="animable" style="transform-origin: 636.065px 244.134px;"><path d="M654.414,266.088c5.367-6.406,15.74-10.681,27.127-12.738-.893,3.154-.224,6.065,1.702,6.779,2.148,.797,5.029-1.436,6.434-4.989,.397-1.003,.617-1.996,.704-2.933,11.481-.904,22.963,.376,30.625,3.937,0,0-7.502,6.549-15.999,23.768-.261-.009-.522-.017-.788-.015-5.499,.054-9.931,2.626-9.899,5.744,.023,2.278,2.428,4.213,5.864,5.072-.446,1.103-.892,2.225-1.336,3.389-8.095,21.217-29.69,5.879-29.495-8.643,0,0-26.965-5.015-14.939-19.371Z" style="fill: rgb(64, 123, 255); transform-origin: 686.165px 278.238px;" id="elxpxtthpx9vo" class="animable"></path><g id="el3f1cbbdhmg3" class="animable" style="transform-origin: 626.072px 244.134px;"><path d="M627.81,238.7c-6.613-6.915-18.769-11.037-31.91-12.557,1.261,3.532,.723,6.898-1.417,7.852-2.387,1.064-5.844-1.273-7.721-5.221-.53-1.114-.858-2.23-1.029-3.293-13.159-.199-26.149,2.092-34.61,6.707,0,0,9.058,6.922,20.075,25.937,.297-.029,.594-.057,.898-.074,6.274-.337,11.525,2.274,11.729,5.831,.149,2.599-2.443,4.979-6.293,6.207,.594,1.225,1.189,2.471,1.785,3.767,10.867,23.602,34.302,4.552,32.958-11.99,0,0,30.354-7.671,15.535-23.166Z" style="fill: rgb(64, 123, 255); transform-origin: 591.505px 255.192px;" id="elha033x9lw7r" class="animable"></path><g id="elpbfjmswytx8"><path d="M627.81,238.7c-6.613-6.915-18.769-11.037-31.91-12.557,1.261,3.532,.723,6.898-1.417,7.852-2.387,1.064-5.844-1.273-7.721-5.221-.53-1.114-.858-2.23-1.029-3.293-13.159-.199-26.149,2.092-34.61,6.707,0,0,9.058,6.922,20.075,25.937,.297-.029,.594-.057,.898-.074,6.274-.337,11.525,2.274,11.729,5.831,.149,2.599-2.443,4.979-6.293,6.207,.594,1.225,1.189,2.471,1.785,3.767,10.867,23.602,34.302,4.552,32.958-11.99,0,0,30.354-7.671,15.535-23.166Z" style="opacity: 0.3; transform-origin: 591.505px 255.192px;" class="animable"></path></g><g id="elhd7k11kn07" class="animable" style="transform-origin: 656.073px 219.115px;"><path d="M611.749,233.519c2.809-13.276,14.581-27.119,29.566-38.475,1.167,5.253,4.42,9.003,7.786,8.631,3.755-.415,6.205-5.785,5.474-11.994-.206-1.753-.662-3.361-1.269-4.792,16.026-9.744,33.759-16.307,47.715-16.741,0,0-5.809,15.05-4.718,46.382-.387,.178-.775,.358-1.161,.557-7.972,4.115-12.419,11.115-9.931,15.636,1.817,3.303,6.836,4.358,12.516,3.088,.212,1.935,.44,3.897,.704,5.92,4.806,36.863-38.669,30.36-49.75,9.053,0,0-43.224,12.482-36.931-17.266Z" style="fill: rgb(64, 123, 255); transform-origin: 656.073px 219.115px;" id="el840w952zgjn" class="animable"></path><g id="elzjuhqjhrqvd"><path d="M611.749,233.519c2.809-13.276,14.581-27.119,29.566-38.475,1.167,5.253,4.42,9.003,7.786,8.631,3.755-.415,6.205-5.785,5.474-11.994-.206-1.753-.662-3.361-1.269-4.792,16.026-9.744,33.759-16.307,47.715-16.741,0,0-5.809,15.05-4.718,46.382-.387,.178-.775,.358-1.161,.557-7.972,4.115-12.419,11.115-9.931,15.636,1.817,3.303,6.836,4.358,12.516,3.088,.212,1.935,.44,3.897,.704,5.92,4.806,36.863-38.669,30.36-49.75,9.053,0,0-43.224,12.482-36.931-17.266Z" style="fill: rgb(255, 255, 255); opacity: 0.2; transform-origin: 656.073px 219.115px;" class="animable"></path></g></g><path d="M643.07,318.12c-.235,0-.446-.168-.49-.408-7.267-39.112,3.594-81.069,29.05-112.236,.177-.214,.491-.245,.704-.071,.214,.175,.245,.49,.071,.704-25.273,30.941-36.056,72.594-28.843,111.419,.051,.271-.128,.533-.399,.583-.031,.006-.062,.009-.093,.009Z" style="fill: rgb(38, 50, 56); transform-origin: 656.442px 261.706px;" id="elryt8osotw5i" class="animable"></path><path d="M641.106,304.143c-.051,0-.103-.008-.152-.023-.149-.048-.268-.163-.319-.311-5.146-14.608-22.532-46.085-51.494-60.649-.247-.124-.346-.425-.222-.671,.125-.248,.425-.346,.671-.222,28.844,14.504,46.309,45.597,51.767,60.59,4.646-3.257,38.108-26.665,54.705-36.964,.233-.144,.543-.073,.688,.161s.073,.543-.161,.688c-17.745,11.012-54.822,37.048-55.195,37.31-.085,.06-.186,.091-.287,.091Z" style="fill: rgb(38, 50, 56); transform-origin: 642.845px 273.178px;" id="eltrvszgk803f" class="animable"></path></g></g><ellipse cx="642.869" cy="367.476" rx="26.322" ry="4.767" style="fill: rgb(38, 50, 56); transform-origin: 642.869px 367.476px;" id="elkycpk56eg7h" class="animable"></ellipse><path d="M681.929,309.89c0,3.19-17.836,5.776-39.838,5.776s-39.838-2.586-39.838-5.776,17.836-5.776,39.838-5.776,39.838,2.586,39.838,5.776Z" style="fill: rgb(38, 50, 56); transform-origin: 642.091px 309.89px;" id="elyj6d4kbf70b" class="animable"></path><g id="el06zyb1hy20kt"><path d="M677.776,309.311c0,1.897-15.745,3.434-35.166,3.434s-35.166-1.537-35.166-3.434,15.745-3,35.166-3,35.166,1.104,35.166,3Z" style="opacity: 0.3; transform-origin: 642.61px 309.528px;" class="animable"></path></g></g></g><g id="freepik--CPU--inject-213" class="animable" style="transform-origin: 154.247px 260.384px;"><g id="el6w2tz7vrs6i" class="animable" style="transform-origin: 154.247px 260.384px;"><path d="M169.169,146.617l45.674,21.062c3.659,1.687,6.007,5.338,6.018,9.368,.077,28.554,.383,141.113,.451,165.853,.008,3.028-1.702,5.795-4.413,7.144l-44.627,22.201-3.104-225.628Z" style="fill: rgb(38, 50, 56); transform-origin: 195.24px 259.431px;" id="elao2eaptqngm" class="animable"></path><g id="eljkc7xww26y"><path d="M169.169,146.617l45.674,21.062c3.659,1.687,6.007,5.338,6.018,9.368,.077,28.554,.383,141.113,.451,165.853,.008,3.028-1.702,5.795-4.413,7.144l-44.627,22.201-3.104-225.628Z" style="opacity: 0.3; transform-origin: 195.24px 259.431px;" class="animable"></path></g><rect x="87.181" y="146.617" width="88.758" height="227.172" rx="9.513" ry="9.513" style="fill: rgb(38, 50, 56); transform-origin: 131.56px 260.203px;" id="el8p4534mq52m" class="animable"></rect><g id="elzzv1gej2vi"><path d="M98.071,178.883h31.362v183.045h-29.121c-7.247,0-13.131-5.884-13.131-13.131V189.774c0-6.01,4.88-10.89,10.89-10.89Z" style="opacity: 0.5; transform-origin: 108.307px 270.405px; transform: rotate(180deg);" class="animable"></path></g><rect x="145.839" y="146.617" width="3.416" height="227.172" style="fill: rgb(64, 123, 255); transform-origin: 147.547px 260.203px;" id="el7fxefhwrvzm" class="animable"></rect><path d="M164.957,165.704c-2.599,0-4.712-2.114-4.712-4.712s2.114-4.712,4.712-4.712,4.712,2.114,4.712,4.712-2.114,4.712-4.712,4.712Zm0-8.424c-2.047,0-3.712,1.666-3.712,3.712s1.666,3.712,3.712,3.712,3.712-1.665,3.712-3.712-1.666-3.712-3.712-3.712Z" style="fill: rgb(64, 123, 255); transform-origin: 164.957px 160.992px;" id="el61kisz3d1tl" class="animable"></path><circle cx="164.957" cy="160.88" r="2.572" style="fill: rgb(64, 123, 255); transform-origin: 164.957px 160.88px;" id="elshsazj2pi5r" class="animable"></circle><g id="elwdaexw1b8vs"><path d="M183.524,164.175l9.256,3.739,1.337,.54c.379,.153,.82-.167,.923-.524,.123-.427-.15-.772-.524-.923l-9.256-3.739-1.337-.54c-.379-.153-.82,.167-.923,.524-.123,.427,.15,.772,.524,.923h0Z" style="opacity: 0.3; transform-origin: 189.02px 165.591px;" class="animable"></path></g><g id="elvl3mw4ghjam"><path d="M183.524,167.444l9.256,3.739,1.337,.54c.379,.153,.82-.167,.923-.524,.123-.427-.15-.772-.524-.923l-9.256-3.739-1.337-.54c-.379-.153-.82,.167-.923,.524-.123,.427,.15,.772,.524,.923h0Z" style="opacity: 0.3; transform-origin: 189.02px 168.86px;" class="animable"></path></g><g id="el61octgxdosj"><path d="M183.524,170.713l9.256,3.739,1.337,.54c.379,.153,.82-.167,.923-.524,.123-.427-.15-.772-.524-.923l-9.256-3.739-1.337-.54c-.379-.153-.82,.167-.923,.524-.123,.427,.15,.772,.524,.923h0Z" style="opacity: 0.3; transform-origin: 189.02px 172.129px;" class="animable"></path></g><path d="M139.832,147.212v226.577c0,.483,.75,.483,.75,0V147.212c0-.483-.75-.483-.75,0h0Z" style="fill: rgb(64, 123, 255); transform-origin: 140.207px 260.501px;" id="ellgvpemna6n" class="animable"></path></g></g><g id="freepik--Monitor--inject-213" class="animable" style="transform-origin: 389.374px 237.839px;"><g id="el94os1ja2u0r" class="animable" style="transform-origin: 389.374px 237.839px;"><ellipse cx="388.824" cy="359.503" rx="126.219" ry="9.679" style="fill: rgb(64, 123, 255); transform-origin: 388.824px 359.503px;" id="el3klmxi4k1bp" class="animable"></ellipse><rect x="217.486" y="106.496" width="344.558" height="207.157" style="fill: rgb(64, 123, 255); transform-origin: 389.765px 210.075px;" id="elolfqnu0tuln" class="animable"></rect><rect x="225.088" y="115.661" width="326.034" height="187.07" style="fill: rgb(38, 50, 56); transform-origin: 388.105px 209.196px;" id="elf9nv88yyhdq" class="animable"></rect><g id="el89tlxh1fy46"><path d="M367.636,349.824s2.056,10.097,21.188,9.235c19.132-.862,29.532-9.001,29.532-9.001,0,0-7.856-.157-17.688-.197-19.219-.077-28.446-.459-33.031-.038Z" style="opacity: 0.3; transform-origin: 392.996px 354.37px;" class="animable"></path></g><path d="M372.788,313.653h27.879v34.245c0,6.914-5.613,12.526-12.526,12.526h-2.826c-6.914,0-12.526-5.613-12.526-12.526v-34.245h0Z" style="fill: rgb(64, 123, 255); transform-origin: 386.727px 337.039px;" id="elwpvzpadwwma" class="animable"></path><g id="elt7xmgqnfu2"><polygon points="217.486 106.496 225.088 115.661 551.122 115.661 562.043 106.496 217.486 106.496" style="opacity: 0.3; transform-origin: 389.765px 111.079px;" class="animable"></polygon></g><g id="elnvilow52wy9"><polygon points="217.486 313.653 225.088 302.732 551.122 302.732 562.043 313.653 217.486 313.653" style="opacity: 0.3; transform-origin: 389.765px 308.193px;" class="animable"></polygon></g><g id="elbd0aauirygb"><path d="M225.088,290.291s179.472-53.19,189.237-80.216,7.131-94.413,7.131-94.413H225.088v174.629Z" style="fill: rgb(255, 255, 255); opacity: 0.2; transform-origin: 323.434px 202.976px;" class="animable"></path></g><path d="M372.788,352.788c.792,5.406,7.087,6.788,11.685,7.016,4.734,.06,10.443,.271,14.102-3.149,1-.984,1.506-2.389,1.601-3.832,.133,1.439-.279,2.978-1.231,4.152-4.749,5.947-26.162,5.659-26.158-4.188h0Z" style="fill: rgb(38, 50, 56); transform-origin: 386.494px 356.855px;" id="eld4gs58pz0q8" class="animable"></path><g id="elqvrfjm1mu7f"><path d="M270.685,359.112s91.16-9.289,92.791-6.324c1.631,2.965,12.583,9.49,16.544,10.655,3.961,1.165-87.264,1.553-109.336-4.331Z" style="fill: rgb(255, 255, 255); opacity: 0.3; transform-origin: 325.415px 358.175px;" class="animable"></path></g><g id="elktw10zn6s1"><polygon points="217.486 313.653 225.088 302.732 225.088 115.661 216.704 107.278 217.486 313.653" style="fill: rgb(255, 255, 255); opacity: 0.2; transform-origin: 220.896px 210.466px;" class="animable"></polygon></g></g></g><defs>     <filter id="active" height="200%">         <feMorphology in="SourceAlpha" result="DILATED" operator="dilate" radius="2"></feMorphology>                <feFlood flood-color="#32DFEC" flood-opacity="1" result="PINK"></feFlood>        <feComposite in="PINK" in2="DILATED" operator="in" result="OUTLINE"></feComposite>        <feMerge>            <feMergeNode in="OUTLINE"></feMergeNode>            <feMergeNode in="SourceGraphic"></feMergeNode>        </feMerge>    </filter>    <filter id="hover" height="200%">        <feMorphology in="SourceAlpha" result="DILATED" operator="dilate" radius="2"></feMorphology>                <feFlood flood-color="#ff0000" flood-opacity="0.5" result="PINK"></feFlood>        <feComposite in="PINK" in2="DILATED" operator="in" result="OUTLINE"></feComposite>        <feMerge>            <feMergeNode in="OUTLINE"></feMergeNode>            <feMergeNode in="SourceGraphic"></feMergeNode>        </feMerge>            <feColorMatrix type="matrix" values="0   0   0   0   0                0   1   0   0   0                0   0   0   0   0                0   0   0   1   0 "></feColorMatrix>    </filter></defs></svg>